# xmcd
#
# Track frame offsets:
#	150
#	14316
#	29066
#	46866
#	61879
#	77707
#	92925
#	108959
#	118854
#	131427
#	147258
#	162248
#	183643
#
# Disc length: 2661 seconds
# Revision: 0
# Processed by: cddbd v1.5.2PL0 Copyright (c) Steve Scherf et al.
# Submitted via: dBpowerAMP V12.0
#
DISCID=b00a630d
DTITLE=Lloyd Back - Alone With You
DYEAR=2013
DGENRE=Country
TTITLE0=Do They Ever Think Of Home
TTITLE1=Alone With You
TTITLE2=Six White Bloomers
TTITLE3=Running On Love
TTITLE4=Indian Man
TTITLE5=When Your Gone
TTITLE6=Cord Of Three Strands
TTITLE7=Moolight On The Downs
TTITLE8=Give Them All To Jesus
TTITLE9=Just As I Am
TTITLE10=Hazelwood
TTITLE11=Is It Too Much
TTITLE12=Still Small Hours
EXTD=
EXTT0=
EXTT1=
EXTT2=
EXTT3=
EXTT4=
EXTT5=
EXTT6=
EXTT7=
EXTT8=
EXTT9=
EXTT10=
EXTT11=
EXTT12=
PLAYORDER=
